<svg width="20" height="20" viewBox="0 0 20 20" fill="none" xmlns="http://www.w3.org/2000/svg">
<path d="M9.99988 1.875C8.58879 1.87489 7.202 2.24229 5.97605 2.94101C4.7501 3.63973 3.72725 4.64569 3.00822 5.85985C2.28919 7.074 1.89876 8.45448 1.87538 9.86538C1.852 11.2763 2.19648 12.6689 2.87488 13.9062L2.21082 16.2422C2.14837 16.4571 2.1444 16.6849 2.19934 16.9018C2.25427 17.1188 2.36611 17.3172 2.52332 17.4766C2.68052 17.6345 2.87755 17.747 3.0935 17.802C3.30945 17.857 3.53627 17.8525 3.74988 17.7891L6.09363 17.125C7.1798 17.7203 8.38768 18.0594 9.62498 18.1164C10.8623 18.1734 12.0962 17.9467 13.2325 17.4538C14.3688 16.9608 15.3773 16.2146 16.181 15.2721C16.9847 14.3297 17.5623 13.216 17.8697 12.0161C18.177 10.8162 18.2059 9.56199 17.9543 8.34922C17.7026 7.13645 17.1771 5.99727 16.4177 5.01874C15.6583 4.04022 14.6853 3.24825 13.573 2.70339C12.4607 2.15852 11.2385 1.87517 9.99988 1.875ZM12.4999 11.875H7.49988C7.33412 11.875 7.17515 11.8092 7.05794 11.6919C6.94073 11.5747 6.87488 11.4158 6.87488 11.25C6.87488 11.0842 6.94073 10.9253 7.05794 10.8081C7.17515 10.6908 7.33412 10.625 7.49988 10.625H12.4999C12.6656 10.625 12.8246 10.6908 12.9418 10.8081C13.059 10.9253 13.1249 11.0842 13.1249 11.25C13.1249 11.4158 13.059 11.5747 12.9418 11.6919C12.8246 11.8092 12.6656 11.875 12.4999 11.875ZM12.4999 9.375H7.49988C7.33412 9.375 7.17515 9.30915 7.05794 9.19194C6.94073 9.07473 6.87488 8.91576 6.87488 8.75C6.87488 8.58424 6.94073 8.42527 7.05794 8.30806C7.17515 8.19085 7.33412 8.125 7.49988 8.125H12.4999C12.6656 8.125 12.8246 8.19085 12.9418 8.30806C13.059 8.42527 13.1249 8.58424 13.1249 8.75C13.1249 8.91576 13.059 9.07473 12.9418 9.19194C12.8246 9.30915 12.6656 9.375 12.4999 9.375Z" fill="black"/>
</svg>
