<svg width="20" height="20" viewBox="0 0 20 20" fill="none" xmlns="http://www.w3.org/2000/svg">
<path d="M19.2109 9.17188L16.3984 12.2969C16.3396 12.3605 16.2683 12.4113 16.1891 12.4463C16.1098 12.4812 16.0241 12.4995 15.9375 12.5H10.625V17.5C10.625 17.6658 10.5592 17.8247 10.4419 17.9419C10.3247 18.0592 10.1658 18.125 10 18.125C9.83424 18.125 9.67527 18.0592 9.55806 17.9419C9.44085 17.8247 9.375 17.6658 9.375 17.5V12.5H3.125C2.79348 12.5 2.47554 12.3683 2.24112 12.1339C2.0067 11.8995 1.875 11.5815 1.875 11.25V6.25C1.875 5.91848 2.0067 5.60054 2.24112 5.36612C2.47554 5.1317 2.79348 5 3.125 5H9.375V2.5C9.375 2.33424 9.44085 2.17527 9.55806 2.05806C9.67527 1.94085 9.83424 1.875 10 1.875C10.1658 1.875 10.3247 1.94085 10.4419 2.05806C10.5592 2.17527 10.625 2.33424 10.625 2.5V5H15.9375C16.0241 5.0005 16.1098 5.01878 16.1891 5.05372C16.2683 5.08866 16.3396 5.13952 16.3984 5.20312L19.2109 8.32812C19.3163 8.44334 19.3748 8.59384 19.3748 8.75C19.3748 8.90616 19.3163 9.05666 19.2109 9.17188Z" fill="black"/>
</svg>