<svg width="40" height="40" viewBox="0 0 40 40" fill="none" xmlns="http://www.w3.org/2000/svg">
<rect width="40" height="40" rx="15" fill="#F5DA6C"/>
<path d="M16.9661 22.78C16.7755 23.6453 16.5188 24.3933 16.1961 25.024C15.8881 25.64 15.4995 26.146 15.0301 26.542C14.5608 26.938 14.0108 27.2313 13.3801 27.422C12.7495 27.6127 12.0308 27.708 11.2241 27.708C10.6081 27.708 10.0435 27.62 9.53012 27.444C9.01679 27.268 8.56946 27.0113 8.18812 26.674C7.82146 26.3367 7.52812 25.926 7.30812 25.442C7.10279 24.9433 7.00012 24.3713 7.00012 23.726C7.00012 23.2713 7.05146 22.8167 7.15412 22.362L7.37412 21.328H10.2781L9.97012 22.78C9.92612 22.9853 9.90412 23.198 9.90412 23.418C9.90412 23.9167 10.0508 24.3053 10.3441 24.584C10.6375 24.848 11.0628 24.98 11.6201 24.98C12.2508 24.98 12.7788 24.7893 13.2041 24.408C13.6295 24.0267 13.9155 23.484 14.0621 22.78L15.7781 14.728H14.1281V12H20.1561V14.728H18.6821L16.9661 22.78Z" fill="black"/>
<path d="M24.8708 16.488L23.5068 22.824C23.4482 23.0733 23.4188 23.3153 23.4188 23.55C23.4188 24.1073 23.5728 24.5253 23.8808 24.804C24.1888 25.068 24.5995 25.2 25.1128 25.2C25.8902 25.2 26.4842 24.9507 26.8948 24.452C27.3202 23.9387 27.6355 23.22 27.8408 22.296L29.0728 16.488H31.8448L30.0408 24.804L30.2828 24.936L31.0748 24.364L32.4608 26.388L31.4268 27.136C31.1482 27.3413 30.8548 27.488 30.5468 27.576C30.2535 27.664 29.9602 27.708 29.6668 27.708C29.0655 27.708 28.5375 27.5393 28.0828 27.202C27.6282 26.85 27.3715 26.344 27.3128 25.684H26.9168C26.5942 26.432 26.1542 26.96 25.5968 27.268C25.0542 27.5613 24.4382 27.708 23.7488 27.708C22.7955 27.708 22.0182 27.422 21.4168 26.85C20.8155 26.2633 20.5148 25.4493 20.5148 24.408C20.5148 24.0413 20.5588 23.6453 20.6468 23.22L22.0988 16.488H24.8708Z" fill="black"/>
</svg>
